<?xml version="1.0" encoding="UTF-8" standalone="no"?>
<!-- Created with Inkscape (http://www.inkscape.org/) -->

<svg
   xmlns:dc="http://purl.org/dc/elements/1.1/"
   xmlns:cc="http://creativecommons.org/ns#"
   xmlns:rdf="http://www.w3.org/1999/02/22-rdf-syntax-ns#"
   xmlns:svg="http://www.w3.org/2000/svg"
   xmlns="http://www.w3.org/2000/svg"
   xmlns:xlink="http://www.w3.org/1999/xlink"
   xmlns:sodipodi="http://sodipodi.sourceforge.net/DTD/sodipodi-0.dtd"
   xmlns:inkscape="http://www.inkscape.org/namespaces/inkscape"
   width="22"
   height="22"
   id="svg2"
   version="1.1"
   inkscape:version="0.48.0 r9654"
   sodipodi:docname="invisible-layer.svg">
  <defs
     id="defs4">
    <linearGradient
       inkscape:collect="always"
       id="linearGradient3857">
      <stop
         style="stop-color:#000000;stop-opacity:0.51488095"
         offset="0"
         id="stop3859" />
      <stop
         style="stop-color:#000000;stop-opacity:0;"
         offset="1"
         id="stop3861" />
    </linearGradient>
    <linearGradient
       id="linearGradient3779">
      <stop
         style="stop-color:#a88765;stop-opacity:1;"
         offset="0"
         id="stop3781" />
      <stop
         style="stop-color:#739e6f;stop-opacity:1;"
         offset="1"
         id="stop3783" />
    </linearGradient>
    <radialGradient
       inkscape:collect="always"
       xlink:href="#linearGradient3779"
       id="radialGradient3785"
       cx="247.24272"
       cy="550.3913"
       fx="247.24272"
       fy="550.3913"
       r="40"
       gradientTransform="matrix(1.1956715,0.0044646,-0.005591,0.84225221,-45.414646,85.92602)"
       gradientUnits="userSpaceOnUse" />
    <radialGradient
       inkscape:collect="always"
       xlink:href="#linearGradient3857"
       id="radialGradient3865"
       cx="10.769434"
       cy="1050.8647"
       fx="10.769434"
       fy="1050.8647"
       r="9.909878"
       gradientTransform="matrix(1.2181911,0.03981019,-0.0230986,0.70681692,22.123574,303.46517)"
       gradientUnits="userSpaceOnUse" />
  </defs>
  <sodipodi:namedview
     id="base"
     pagecolor="#ffffff"
     bordercolor="#666666"
     borderopacity="1.0"
     inkscape:pageopacity="0.0"
     inkscape:pageshadow="2"
     inkscape:zoom="2.8284271"
     inkscape:cx="-11.222127"
     inkscape:cy="36.057056"
     inkscape:document-units="px"
     inkscape:current-layer="layer1"
     showgrid="false"
     inkscape:window-width="1100"
     inkscape:window-height="750"
     inkscape:window-x="0"
     inkscape:window-y="25"
     inkscape:window-maximized="0" />
  <metadata
     id="metadata7">
    <rdf:RDF>
      <cc:Work
         rdf:about="">
        <dc:format>image/svg+xml</dc:format>
        <dc:type
           rdf:resource="http://purl.org/dc/dcmitype/StillImage" />
        <dc:title></dc:title>
      </cc:Work>
    </rdf:RDF>
  </metadata>
  <g
     inkscape:label="Ebene 1"
     inkscape:groupmode="layer"
     id="layer1"
     transform="translate(0,-1030.3622)">
    <path
       style="fill:url(#radialGradient3865);fill-opacity:1;stroke:none"
       d="m 20.627286,1041.8094 c -2.589989,-1.2807 -7.713408,-3.1137 -12.1249997,-2.9375 -2.6469548,0.1057 -5.0329293,0.9637 -6.53125,3.2187 0,0 -0.5268304,0.5615 -0.5364579,0.8796 -0.00963,0.318 0.4114579,0.7767 0.4114579,0.7767 3.874164,4.6572 10.3803497,4.1237 18.9374997,0.4062 0.612122,-0.2659 0.469902,-0.9352 0.420808,-1.3597 -0.04909,-0.4245 0.06524,-0.6664 -0.577058,-0.984 z"
       id="path3831"
       inkscape:connector-curvature="0"
       sodipodi:nodetypes="ssczcszs" />
    <path
       sodipodi:nodetypes="cc"
       inkscape:connector-curvature="0"
       id="path3755"
       d="m 1.8529922,1043.8412 c 3.874164,4.6572 10.3068168,3.9887 18.9227508,0.4096"
       style="fill:none;stroke:#000000;stroke-width:1.30660319;stroke-linecap:round;stroke-linejoin:miter;stroke-miterlimit:4;stroke-opacity:1;stroke-dasharray:none" />
    <path
       style="font-size:medium;font-style:normal;font-variant:normal;font-weight:normal;font-stretch:normal;text-indent:0;text-align:start;text-decoration:none;line-height:normal;letter-spacing:normal;word-spacing:normal;text-transform:none;direction:ltr;block-progression:tb;writing-mode:lr-tb;text-anchor:start;baseline-shift:baseline;color:#000000;fill:#000000;fill-opacity:1;stroke:none;stroke-width:40;marker:none;visibility:visible;display:inline;overflow:visible;enable-background:accumulate;font-family:Sans;-inkscape-font-specification:Sans"
       d="m 13.083766,1033.2275 c -1.194539,-0.077 -2.387907,-0.072 -3.5381916,0.011 -3.6809437,0.2659 -7.0061683,1.3599 -8.4200681,4.0711 -0.076742,0.1415 -0.1002338,0.3178 -0.063672,0.4773 0.036576,0.1592 0.223573,0.4229 0.5183873,0.5622 0.2947945,0.1396 0.8429408,0.1436 0.9859604,0.099 0.1430342,-0.045 0.2689302,-0.156 0.3414597,-0.3005 1.0767516,-2.0648 3.1812796,-3.4112 6.6979758,-3.6652 3.5166968,-0.2541 7.6493038,0.1987 10.7347038,1.1873 0.141758,0.049 0.298904,0.031 0.433996,-0.045 0.08216,-0.044 0.145285,-0.1261 0.178528,-0.2482 0.01976,-0.072 0.03017,-0.1552 -0.04226,-0.2993 -0.07239,-0.1448 -0.198989,-0.2528 -0.342882,-0.2945 -2.213454,-0.7092 -4.855465,-1.3948 -7.483987,-1.5537 z"
       id="path3769"
       inkscape:connector-curvature="0"
       sodipodi:nodetypes="sscszscscssscs" />
  </g>
</svg>
